<?xml version="1.0" encoding="UTF-8"?>
<svg width="502px" height="131px" viewBox="0 0 502 131" version="1.1" xmlns="http://www.w3.org/2000/svg" xmlns:xlink="http://www.w3.org/1999/xlink">
    <title>pict_router_mode_client_wired</title>
    <defs>
        <rect id="path-1" x="0" y="0" width="900" height="540" rx="4"></rect>
        <filter x="-1.6%" y="-2.0%" width="103.1%" height="105.2%" filterUnits="objectBoundingBox" id="filter-2">
            <feMorphology radius="0.5" operator="dilate" in="SourceAlpha" result="shadowSpreadOuter1"></feMorphology>
            <feOffset dx="0" dy="3" in="shadowSpreadOuter1" result="shadowOffsetOuter1"></feOffset>
            <feGaussianBlur stdDeviation="4" in="shadowOffsetOuter1" result="shadowBlurOuter1"></feGaussianBlur>
            <feComposite in="shadowBlurOuter1" in2="SourceAlpha" operator="out" result="shadowBlurOuter1"></feComposite>
            <feColorMatrix values="0 0 0 0 0.831372549   0 0 0 0 0.862745098   0 0 0 0 0.901960784  0 0 0 1 0" type="matrix" in="shadowBlurOuter1"></feColorMatrix>
        </filter>
    </defs>
    <g id="Setup-Wizard" stroke="none" stroke-width="1" fill="none" fill-rule="evenodd">
        <g id="00-setup-wizard_020-router-mode_020-step-2_020-ethernet" transform="translate(-469, -271)">
            <rect fill="#F5F7FA" x="0" y="0" width="1440" height="866"></rect>
            <g id="content" transform="translate(270, 120)">
                <g id="bg">
                    <use fill="black" fill-opacity="1" filter="url(#filter-2)" xlink:href="#path-1"></use>
                    <use stroke="#E2E8EF" stroke-width="1" fill="#FFFFFF" fill-rule="evenodd" xlink:href="#path-1"></use>
                </g>
                <g id="pict_router_mode_client_wired" transform="translate(199, 151)">
                    <g id="item" transform="translate(418, 0)">
                        <text id="Client-Device" font-family="Roboto-Regular, Roboto" font-size="12" font-weight="normal" fill="#4B5057">
                            <tspan x="0.372070312" y="85">END-DEVICE</tspan>
                        </text>
                        <g id="ico_notebook" transform="translate(10, 0)" fill="#63696F" fill-rule="nonzero">
                            <path d="M24.962963,47.7407407 C24.4106782,47.7407407 23.962963,48.188456 23.962963,48.7407407 L23.962963,49.037037 C23.962963,49.5893218 24.4106782,50.037037 24.962963,50.037037 L39.037037,50.037037 C39.5893218,50.037037 40.037037,49.5893218 40.037037,49.037037 L40.037037,48.7407407 C40.037037,48.188456 39.5893218,47.7407407 39.037037,47.7407407 L24.962963,47.7407407 Z M54.4074074,13 L9.59259259,13 C8.48802309,13 7.59259259,13.8954305 7.59259259,15 L7.59259259,43.7407407 C7.59259259,44.8453102 8.48802309,45.7407407 9.59259259,45.7407407 L54.4074074,45.7407407 C55.5119769,45.7407407 56.4074074,44.8453102 56.4074074,43.7407407 L56.4074074,15 C56.4074074,13.8954305 55.5119769,13 54.4074074,13 Z M61,47.7407407 C62.1045695,47.7407407 63,48.6361712 63,49.7407407 L63,50.3333333 C63,51.4379028 62.1045695,52.3333333 61,52.3333333 L3,52.3333333 C1.8954305,52.3333333 1,51.4379028 1,50.3333333 L1,49.7407407 C1,48.6361712 1.8954305,47.7407407 3,47.7407407 L9.59259259,47.7407407 C7.38345359,47.7407407 5.59259259,45.9498797 5.59259259,43.7407407 L5.59259259,15 C5.59259259,12.790861 7.38345359,11 9.59259259,11 L54.4074074,11 C56.6165464,11 58.4074074,12.790861 58.4074074,15 L58.4074074,43.7407407 C58.4074074,45.9498797 56.6165464,47.7407407 54.4074074,47.7407407 L61,47.7407407 Z" id="Combined-Shape"></path>
                        </g>
                    </g>
                    <line x1="356" y1="33" x2="416" y2="33" id="Line" stroke="#63696F" stroke-linecap="square"></line>
                    <text id="Modem" font-family="Roboto-Regular, Roboto" font-size="12" font-weight="normal" fill="#4B5057">
                        <tspan x="154.053711" y="85">MODEM</tspan>
                    </text>
                    <text id="WNRFQQ-113BE" font-family="Roboto-Regular, Roboto" font-size="12" font-weight="normal" fill="#4B5057">
                        <tspan x="273.230469" y="85">WNRFQQ-113BE</tspan>
                    </text>
                    <g id="ico_router_wreq_130be" transform="translate(285, 0)" fill="#63696F" fill-rule="nonzero">
                        <path d="M22.5705943,0.524306724 C22.7366852,0.524306724 22.9001606,0.565676334 23.0462586,0.64467984 L23.7464648,1.02330672 L40.7834648,1.02330672 L41.4853397,0.644535114 C41.5948632,0.585352568 41.7141439,0.547315372 41.8369651,0.531995683 L41.9607363,0.524306724 L45.5233913,0.524306724 C46.2809545,0.524306724 46.763409,1.33389153 46.4029056,2.00017919 C45.7263584,3.25058332 45.1877082,6.01625083 45.0896184,7.80794617 C44.9557175,8.85027284 44.9888668,15.2853732 45.1786858,23.026691 C45.2016849,23.9541418 45.2278668,24.9135352 45.2570377,25.9020079 C45.3258611,28.2341298 45.4102582,30.6941177 45.5067878,33.2313438 C45.6039359,35.7848253 45.7080285,38.2791159 45.8121185,40.6122012 C45.8339757,41.1021093 45.8548952,41.5637514 45.8746896,41.9943745 L45.9127225,42.8134461 C45.930924,43.2012902 45.9439166,43.4723936 45.9459953,43.5531622 C45.9550639,43.6353902 45.9723019,43.7906181 45.9966127,44.0078313 C46.0371569,44.3700882 46.082747,44.7738036 46.1323564,45.2085952 C46.2740763,46.4506719 46.419574,47.6926662 46.560607,48.8513104 C46.5989513,49.1663247 46.636515,49.4714073 46.673195,49.7655199 C46.955539,52.0294533 47.180559,53.5846452 47.2737834,53.8951231 L47.3101374,54.0743375 C47.4221166,55.1016254 47.3011998,55.6309825 46.9253791,56.2588863 C46.8783026,56.3375416 46.8613429,56.3672422 46.8425771,56.4046958 C46.7667258,56.5532811 46.178246,57.8321764 45.2985813,59.7570248 L45.2893881,59.7771414 C44.9465582,60.5273313 44.5797785,61.3311768 44.2133744,62.1350321 C44.0057701,62.5905654 44.0057701,62.5905654 43.8593055,62.9121031 C43.8318514,62.9723868 43.8112609,63.0175996 43.7954373,63.0523455 L43.7601707,63.1297864 C43.7433982,63.1666185 43.7373072,63.1799989 43.7251252,63.2067597 C43.5627399,63.5634801 43.2069311,63.79245 42.8149892,63.79245 L38.3672721,63.79245 C38.0167432,63.79245 37.6918046,63.6089144 37.5108404,63.3087103 C37.4655498,63.2335771 37.3486844,63.0806156 37.1837943,62.9288458 C36.9456778,62.7096762 36.7074828,62.593695 36.4851148,62.593695 L28.0434149,62.593695 C27.8226486,62.593695 27.5852569,62.7094827 27.3475805,62.9284826 C27.1827763,63.0803366 27.065868,63.2334323 27.0204902,63.3087103 C26.839526,63.6089144 26.5145874,63.79245 26.1640584,63.79245 L21.7163413,63.79245 C21.3243994,63.79245 20.9685907,63.5634801 20.8062054,63.2067597 C20.7940234,63.1799989 20.7879324,63.1666185 20.7711598,63.1297864 L20.7358933,63.0523455 C20.7200697,63.0175996 20.6994791,62.9723868 20.672025,62.9121031 C20.5255604,62.5905654 20.5255604,62.5905654 20.3179562,62.1350321 C19.9515521,61.3311768 19.5847723,60.5273313 19.2419424,59.7771414 C19.2373458,59.767083 19.2373458,59.767083 19.2327492,59.7570248 C18.3530845,57.8321764 17.7646047,56.5532811 17.6874765,56.4021857 C17.6724404,56.3725254 17.6550696,56.3422633 17.6143585,56.2745878 L17.6061,56.2608626 C17.2300167,55.6357939 17.1085487,55.1044006 17.2181412,54.0766665 L17.2547463,53.8951231 C17.3479707,53.5846452 17.5729908,52.0294533 17.8553348,49.7655199 C17.8920147,49.4714073 17.9295784,49.1663247 17.9679227,48.8513104 C18.1089557,47.6926662 18.2544534,46.4506719 18.3961734,45.2085952 C18.4457827,44.7738036 18.4913728,44.3700882 18.5319171,44.0078313 C18.5562278,43.7906181 18.5734658,43.6353902 18.5777103,43.6137565 C18.5845934,43.4735361 18.5975261,43.2050335 18.6156441,42.8208062 C18.6458565,42.1800936 18.6795259,41.4487628 18.715788,40.6393733 C18.8194027,38.326636 18.92302,35.8522937 19.0197246,33.3168728 C19.1176319,30.7499198 19.2029783,28.2608482 19.272157,25.9021891 C19.3011475,24.913751 19.3271061,23.9543931 19.3498458,23.0266136 C19.4574619,18.7004471 19.5150444,14.7505307 19.5198998,11.9258719 L19.5198256,11.1381035 C19.5161845,9.37691314 19.4882276,8.16536306 19.4351175,7.73629392 C19.337856,5.99485106 18.8037373,3.24830111 18.128425,2.00017919 C17.7679215,1.33389153 18.2503761,0.524306724 19.0079393,0.524306724 L22.5705943,0.524306724 Z M19.7096609,56.0062433 L19.8113742,56.2214821 C20.0825817,56.8078642 20.5026997,57.7242079 21.0517932,58.9257132 C21.0563946,58.9357819 21.0563946,58.9357819 21.060996,58.9458507 C21.4041286,59.6967031 21.7711679,60.5011173 22.1378222,61.3055217 C22.253229,61.5587516 22.3045208,61.6712982 22.352449,61.7764915 L22.3587139,61.7923067 L24.2683261,61.7924293 C24.5931774,61.5685109 24.8112039,61.2172939 24.8636373,60.729656 L24.8749637,60.5598442 C24.8804955,60.1403845 24.8804955,60.1403845 24.8930729,59.187471 L24.8954936,59.0040809 C24.9068184,58.146148 24.9070894,58.1256534 24.9114249,57.7977389 C24.9138215,57.6611354 24.9188553,57.4806373 24.9273306,57.28491 C24.1826715,57.2175025 23.1521708,56.9949039 21.8863506,56.6495178 C21.5431124,56.5558633 21.1871705,56.4542928 20.8212424,56.3459927 C20.4500115,56.2361231 20.0777744,56.1221408 19.7096609,56.0062433 Z M44.8203515,56.0046462 L44.4036963,56.1360912 C44.1725589,56.2073033 43.9405676,56.2774484 43.7089678,56.3459927 C43.3430397,56.4542928 42.9870978,56.5558633 42.6438596,56.6495178 C41.3785943,56.9947525 40.3484423,57.2173073 39.6020362,57.2845875 C39.6113602,57.4809769 39.6164049,57.662187 39.6188353,57.8009947 C39.6234099,58.1475143 39.6234099,58.1475143 39.6371334,59.1871726 L39.6394904,59.3657516 C39.6497383,60.1422002 39.6500686,60.1676205 39.6550233,60.5489249 C39.6712154,61.1329174 39.9004524,61.5420453 40.2618753,61.7919968 L42.1717139,61.7923067 L42.1788815,61.7764915 C42.2172241,61.6923369 42.2577194,61.6034761 42.3314721,61.4416443 L42.3935083,61.3055217 C42.7601627,60.5011173 43.1272019,59.6967031 43.4703346,58.9458507 L43.4795374,58.9257132 C44.1026777,57.5621816 44.5597116,56.5659069 44.8203515,56.0046462 Z M32.3720187,57.1059545 L32.2636821,57.1086529 C32.2278161,57.1096768 32.1921969,57.1108255 32.1568272,57.1120997 L32.1564648,57.1063067 L32.0718944,57.1043535 C31.7647011,57.0994959 31.440555,57.103247 31.1009074,57.1150905 C30.2487764,57.1448042 29.3401804,57.2228467 28.3643494,57.3388827 C27.9012651,57.3939481 26.5855509,57.5749238 26.4137656,57.5853509 C26.4143411,57.674313 26.4124121,57.7543738 26.4112442,57.8207949 C26.4103865,57.8857672 26.4096896,57.9385572 26.4090329,57.9883023 L26.4077374,58.0864399 C26.4053295,58.2688427 26.4023811,58.4922064 26.3929462,59.20697 L26.390589,59.3855562 C26.384732,59.8292946 26.3821049,60.028211 26.3799269,60.1921467 L26.378334,60.3118183 C26.3772703,60.3915985 26.3761451,60.4757485 26.3746106,60.5904986 C26.3687186,60.803006 26.3461079,61.0048704 26.3083259,61.1958857 C26.8131606,60.8198277 27.3919952,60.593695 28.0434149,60.593695 L36.4851148,60.593695 C37.1380774,60.593695 37.7182147,60.820282 38.224435,61.1967213 C38.1846532,61.0029809 38.1613906,60.7968627 38.1553764,60.5795793 C38.1542702,60.4957007 38.1533852,60.4285977 38.1525766,60.367292 L38.1502351,60.1897881 C38.147833,60.0077191 38.1448144,59.7790189 38.137268,59.2072684 L38.1348473,59.0238803 C38.1235229,58.1659729 38.1232578,58.1458599 38.1190161,57.8240507 C38.1178244,57.756123 38.1158716,57.6748816 38.1130587,57.5854423 L38.1267708,57.5858022 C38.0080128,57.5836429 36.6400086,57.3952637 36.1658608,57.3388827 C35.1900298,57.2228467 34.2814339,57.1448042 33.4293028,57.1150905 C33.0576839,57.1021322 32.7046223,57.0988614 32.3720187,57.1059545 Z M37.2673244,4.60451432 L27.2614648,4.60530672 L27.2775651,4.65881168 C27.2959042,4.73147127 27.3110033,4.81078019 27.3246442,4.8997513 L27.3442348,5.04083123 C27.3675122,5.22402802 27.3824364,5.40204569 27.390241,5.5274993 C27.3933974,5.57986462 27.3933974,5.57986462 27.4077088,5.81598813 C27.4268454,6.13086014 27.4268454,6.13086014 27.4541277,6.57696469 C27.5023625,7.36416292 27.5512237,8.15134465 27.5976991,8.8859376 C27.6060194,9.01734022 27.6060194,9.01734022 27.6143527,9.14849535 C27.7191102,10.7957288 27.8087307,12.0870988 27.8318687,12.2280065 C27.9079192,13.2049626 28.0127616,15.4568461 28.097025,17.6967997 L28.1258302,18.4847807 C28.1999365,20.573567 28.2506685,22.5176779 28.2368654,23.2442522 C28.3076199,25.0347016 28.223905,29.3881281 28.0798791,33.8471931 L28.0456145,34.8769648 C27.8869922,39.5093097 27.671141,44.0517293 27.5035068,45.7523007 C27.4632335,46.20916 27.4093042,46.8196104 27.3450511,47.543299 C27.2365589,48.7652567 27.1292067,49.9653554 27.0276032,51.0885682 C27.0164445,51.2118893 27.0164445,51.2118893 27.005279,51.3351354 C26.7834474,53.7829633 26.6389785,55.3274848 26.5572274,56.061829 C26.9179346,56.013764 27.7378768,55.9028091 28.1872322,55.8493763 C29.2012677,55.7287973 30.1494224,55.647357 31.0486344,55.6160016 C31.4753136,55.6011233 31.8818049,55.5981226 32.2666136,55.6080999 L32.1028229,55.6130722 C32.5346756,55.5975142 32.9949988,55.5990347 33.4815758,55.6160016 C34.3807878,55.647357 35.3289425,55.7287973 36.342978,55.8493763 C36.7926354,55.902845 37.6133777,56.0139132 37.9749774,56.0624699 C37.8914825,55.3301656 37.7469554,53.7850882 37.5249312,51.3351354 C37.5137657,51.2118893 37.5137657,51.2118893 37.502607,51.0885682 C37.4010035,49.9653554 37.2936513,48.7652567 37.1851591,47.543299 C37.120906,46.8196104 37.0669767,46.20916 37.0273932,45.7596713 C36.8656416,44.1185998 36.6593326,39.8439361 36.502503,35.3968117 L36.4672327,34.368611 C36.3128539,29.7380134 36.2196345,25.1255943 36.2928843,23.2875241 C36.2784421,22.4945211 36.3367455,20.3372421 36.4200311,18.0866906 L36.4503856,17.2905751 C36.5336823,15.1683104 36.634131,13.0958794 36.7119112,12.1329258 C36.7214795,12.0870988 36.8111,10.7957288 36.9158575,9.14849535 C36.9179408,9.11570657 36.9195033,9.09111498 36.9208052,9.07061812 L36.9275707,8.96395404 L36.9325111,8.8859376 C36.9789865,8.15134465 37.0278477,7.36416292 37.0760825,6.57696469 C37.1033648,6.13086014 37.1033648,6.13086014 37.1225014,5.81598813 C37.1368128,5.57986462 37.1368128,5.57986462 37.140058,5.52604896 C37.1477738,5.40204569 37.162698,5.22402802 37.1859754,5.04083123 C37.2081356,4.86642698 37.2320426,4.72641488 37.2673244,4.60451432 Z M44.0377139,2.52430672 L42.2117139,2.52430672 L39.0999573,4.20682403 C38.9206606,4.43667509 38.7988959,4.67914876 38.7376196,4.92997282 L38.6989285,5.0461971 C38.7055247,5.03073004 38.6879714,5.12003753 38.6740115,5.22990443 C38.6556197,5.37465093 38.6430506,5.52457655 38.6372516,5.6177518 C38.6340776,5.67040734 38.6340776,5.67040734 38.6197452,5.90687769 C38.6005855,6.22213084 38.6005855,6.22213084 38.5732745,6.6687036 C38.5249836,7.45681827 38.4760634,8.24494944 38.429518,8.98064853 C38.4274342,9.01355834 38.4258714,9.0382407 38.4245688,9.05880574 L38.4177906,9.16566919 L38.4128333,9.24369703 C38.2821943,11.2978977 38.2142793,12.276507 38.1938172,12.3444208 C38.1217715,13.2699307 38.0223173,15.3917599 37.9401567,17.5481955 L37.9102445,18.3562121 C37.8331058,20.5031476 37.7788485,22.5394753 37.792175,23.3034826 C37.7786607,23.6454624 37.770958,24.0846432 37.7683739,24.6028953 L37.76825,25.4373108 C37.7773013,27.7096768 37.8564748,31.0107511 37.966732,34.31932 L38.0017689,35.3413802 L38.031518,36.1675258 C38.1828802,40.281977 38.3717766,44.1073058 38.5208494,45.619908 C38.5611727,46.0773333 38.6150642,46.6873556 38.6792817,47.4106424 C38.7877061,48.6318362 38.8949874,49.8311439 38.9965074,50.953433 C39.0076552,51.0766337 39.0076552,51.0766337 39.0188094,51.1997544 C39.2118674,53.3300769 39.3742935,55.0545348 39.4491728,55.7924023 C40.0263245,55.7425624 40.8896684,55.5634764 41.9538612,55.2817719 L42.2490107,55.2024192 C42.5814646,55.1117073 42.9272041,55.0130481 43.2832798,54.9076639 C43.962261,54.7067125 44.646451,54.4911263 45.301152,54.2755387 L45.3074648,54.2733067 L45.2960293,54.2203546 C45.1615553,53.6005106 44.9749545,52.2904207 44.7282572,50.3298745 L44.6885694,50.0130304 C44.6516385,49.7169052 44.6138356,49.4098802 44.5752607,49.0929715 C44.4335516,47.9287725 44.2874948,46.6820063 44.1452492,45.4353225 C44.0954706,44.9990479 44.0497206,44.5939162 44.0090225,44.2302846 C43.9845879,44.0119646 43.9672789,43.8560975 43.9532122,43.7115577 C43.9462365,43.5687041 43.9331835,43.2963409 43.9149213,42.907203 C43.8844995,42.2589675 43.8506051,41.5194362 43.814106,40.701342 C43.7098314,38.3641194 43.6055593,35.865527 43.5082337,33.3073794 C43.4114995,30.7647773 43.3269106,28.2991988 43.257908,25.9610043 C43.228647,24.9694781 43.2023797,24.0069567 43.1792936,23.0759944 C43.07342,18.7581895 43.0154713,14.8884195 43.0085227,12.0803874 L43.0084706,11.0152553 C43.0131648,9.25546109 43.04305,8.05601374 43.0991808,7.62741336 C43.1756114,6.19051696 43.5031952,4.21842772 44.0000769,2.64080891 L44.0377139,2.52430672 Z M22.3187139,2.52430672 L20.4927139,2.52430672 L20.5294296,2.63392191 C20.986202,4.08072946 21.2980986,5.85411346 21.4036658,7.2223714 L21.4257235,7.55557232 C21.4864918,8.03807265 21.5176181,9.36317448 21.5206088,11.2814622 L21.520728,11.8191513 C21.5177515,14.6712618 21.4591826,18.6561445 21.3492363,23.075984 C21.3264245,24.0067054 21.3003794,24.9692623 21.2712973,25.9608232 C21.2019346,28.3257572 21.1163903,30.8205992 21.0182715,33.3931003 C20.9213865,35.9332495 20.8175865,38.4119539 20.7137838,40.7288871 C20.6774498,41.5398823 20.6437086,42.2727724 20.6134242,42.9150103 C20.5952442,43.3005533 20.5822498,43.5703375 20.5704809,43.7724081 C20.5612508,43.8560975 20.5439418,44.0119646 20.5195072,44.2302846 C20.4788091,44.5939162 20.4330591,44.9990479 20.3832805,45.4353225 C20.2410349,46.6820063 20.0949781,47.9287725 19.953269,49.0929715 C19.9146941,49.4098802 19.8768912,49.7169052 19.8399603,50.0130304 C19.5659191,52.2103887 19.3628348,53.6475682 19.220589,54.2740526 C19.8837592,54.4911263 20.5679492,54.7067125 21.2469304,54.9076639 C21.6030061,55.0130481 21.9487456,55.1117073 22.2811995,55.2024192 C23.481866,55.5300278 24.4525583,55.7382776 25.0813934,55.7923301 C25.1562834,55.0506417 25.3185607,53.3276725 25.5114008,51.1997544 C25.522555,51.0766337 25.522555,51.0766337 25.5337028,50.953433 C25.6352228,49.8311439 25.7425041,48.6318362 25.8509285,47.4106424 C25.915146,46.6873556 25.9690375,46.0773333 26.0100506,45.6125374 C26.3457301,42.206857 26.884857,27.0188189 26.7375746,23.2602107 C26.7663539,21.6799672 26.4894901,14.3111294 26.3499627,12.4395015 C26.3470035,12.4253281 26.343788,12.4049874 26.3402973,12.3783086 L26.3289808,12.2790867 C26.2904112,11.9035891 26.2252961,10.9406454 26.1173769,9.24369703 C26.1090274,9.11228777 26.1090274,9.11228777 26.1006922,8.98064853 L26.0294685,7.84433191 C26.0053839,7.4568224 25.9810811,7.06276094 25.9569357,6.6687036 C25.9296247,6.22213084 25.9296247,6.22213084 25.910465,5.90687769 C25.8961326,5.67040734 25.8961326,5.67040734 25.8930475,5.61920214 C25.8871597,5.52457655 25.8745906,5.37465093 25.8561987,5.22990443 C25.8422388,5.12003753 25.8246855,5.03073004 25.8312817,5.0461971 L25.7925906,4.92997282 C25.7314042,4.67951654 25.6099066,4.43738618 25.4310412,4.20783518 L22.3187139,2.52430672 Z M32.2651051,18.9194179 C32.4331549,18.9194179 32.5731963,19.0566586 32.5731963,19.2247083 L32.5731963,45.0315505 C32.5731963,45.1779938 32.4703087,45.2997442 32.335085,45.3315414 L32.2651051,45.3396417 C32.0970553,45.3396417 31.9570139,45.2024011 31.9570139,45.0315505 L31.9570139,19.2247083 C31.9570139,19.0566586 32.0970553,18.9194179 32.2651051,18.9194179 Z M38.6768744,2.02345 L26.0228744,2.02345 L26.1573087,2.07587625 C26.2441287,2.10960931 26.3198758,2.13897105 26.3748598,2.16012574 L26.4405523,2.18522302 C26.5547919,2.22829378 26.6545519,2.26395771 26.7354555,2.2917131 L26.8708241,2.33653053 C26.9246407,2.35351823 26.9566832,2.36226293 26.9625749,2.36226293 L37.7373656,2.36226293 C37.7530768,2.36226293 37.9547491,2.30007839 38.2593882,2.18522302 C38.3070859,2.16723997 38.4124017,2.12647583 38.5426318,2.07587625 L38.6768744,2.02345 Z" id="Combined-Shape"></path>
                    </g>
                    <g id="ico_modem" transform="translate(144, 0)" fill="#63696F" fill-rule="nonzero">
                        <path d="M59,22.5 C60.6568542,22.5 62,23.8431458 62,25.5 L62,39.5 C62,41.0056334 60.890843,42.2522094 59.44504,42.4672167 C59.2349653,43.3462138 58.4438326,44 57.5,44 L45.5,44 C44.5684484,44 43.7856488,43.3631171 43.5632721,42.5010222 L21.4367279,42.5010222 C21.2143512,43.3631171 20.4315516,44 19.5,44 L7.5,44 C6.56844842,44 5.78564881,43.3631171 5.56327212,42.5010222 L5,42.5 C3.34314575,42.5 2,41.1568542 2,39.5 L2,25.5 C2,23.8431458 3.34314575,22.5 5,22.5 L59,22.5 Z M20.3655723,42.5011143 L6.63442774,42.5011143 C6.80749049,42.7994004 7.13031897,43 7.5,43 L19.5,43 C19.869681,43 20.1925095,42.7994004 20.3655723,42.5011143 Z M58.3655723,42.5011143 L44.6344277,42.5011143 C44.8074905,42.7994004 45.130319,43 45.5,43 L57.5,43 C57.869681,43 58.1925095,42.7994004 58.3655723,42.5011143 Z M60,38.833 L4,38.833 L4,39.5 C4,40.0522847 4.44771525,40.5 5,40.5 L59,40.5 C59.5522847,40.5 60,40.0522847 60,39.5 L60,38.833 Z M7,24.5 L5,24.5 C4.44771525,24.5 4,24.9477153 4,25.5 L4,37.5 L60,37.5 L60,25.5 C60,24.9477153 59.5522847,24.5 59,24.5 L17,24.5 L17,29.5 L15,29.5 L15,24.5 L13,24.5 L13,29.5 L11,29.5 L11,24.5 L9,24.5 L9,29.5 L7,29.5 L7,24.5 Z M54,29.5 C55.1045695,29.5 56,30.3954305 56,31.5 C56,32.6045695 55.1045695,33.5 54,33.5 C52.8954305,33.5 52,32.6045695 52,31.5 C52,30.3954305 52.8954305,29.5 54,29.5 Z M46,29.5 C47.1045695,29.5 48,30.3954305 48,31.5 C48,32.6045695 47.1045695,33.5 46,33.5 C44.8954305,33.5 44,32.6045695 44,31.5 C44,30.3954305 44.8954305,29.5 46,29.5 Z M38,29.5 C39.1045695,29.5 40,30.3954305 40,31.5 C40,32.6045695 39.1045695,33.5 38,33.5 C36.8954305,33.5 36,32.6045695 36,31.5 C36,30.3954305 36.8954305,29.5 38,29.5 Z" id="Combined-Shape"></path>
                    </g>
                    <g id="ico_network_online" fill="#63696F" fill-rule="nonzero">
                        <path d="M32,2 C48.5685425,2 62,15.4314575 62,32 C62,48.5685425 48.5685425,62 32,62 C15.4314575,62 2,48.5685425 2,32 C2,15.4314575 15.4314575,2 32,2 Z M32,4 C16.536027,4 4,16.536027 4,32 C4,47.463973 16.536027,60 32,60 C47.463973,60 60,47.463973 60,32 C60,16.536027 47.463973,4 32,4 Z M30.9999708,42.0102973 L31.0003538,52.3884876 C27.9886267,51.7172341 25.2033726,48.064948 23.5521139,42.7764297 L23.8125022,42.7269026 C26.0472298,42.3105174 28.4764466,42.0623495 30.9999708,42.0102973 Z M33.000556,42.0103085 C35.6219124,42.0644067 38.1420565,42.3301065 40.447572,42.7774357 C38.7964568,48.0648266 36.0117981,51.7164693 33.0006448,52.3882649 L33.000556,42.0103085 Z M21.5938614,43.212561 C22.8181338,47.1984822 24.6750873,50.4148087 26.9075922,52.3794225 C22.4991294,51.2802122 18.6417345,48.7891325 15.8297909,45.3995391 C17.411871,44.5123781 19.3736764,43.7725384 21.5938614,43.212561 Z M42.4076562,43.2110403 C44.5126229,43.7423622 46.3860733,44.43433 47.9256023,45.2583914 L48.1735255,45.3955404 C45.3610893,48.787426 41.5020289,51.2801518 37.0915281,52.3785342 C39.325153,50.4148154 41.1826228,47.1978912 42.4076562,43.2110403 Z M52.9766002,33.0002053 C52.7726541,37.3496234 51.2455698,41.3530216 48.7887802,44.6169671 L49.2942947,43.7298272 C47.5369,42.7275492 45.3724564,41.9003315 42.934348,41.2828075 C43.54948,38.7395164 43.9196337,35.9436001 43.9883382,33.0009415 L52.9766002,33.0002053 Z M20.0116618,33.0009415 C20.0803753,35.9439849 20.4506168,38.7402476 21.0654924,41.2826349 C18.6265315,41.9021532 16.461735,42.7309163 14.704786,43.735395 L15.2006586,44.6029238 C12.7500541,41.3415415 11.2270535,37.3433876 11.0233998,33.0002053 L20.0116618,33.0009415 Z M31,33 L30.9998569,40.0098747 C28.1965871,40.0653185 25.4960433,40.3530547 23.01787,40.8440991 C22.4392436,38.4589736 22.0813469,35.8109117 22.0122749,33.0008189 L31,33 Z M41.9877251,33.0008189 C41.9186531,35.8109117 41.5607564,38.4589736 40.9823285,40.8426673 C38.5037202,40.3529728 35.8032264,40.0653419 33.0006082,40.0098844 L33,33 L41.9877251,33.0008189 Z M48.8011178,19.3994407 C51.2506819,22.6603909 52.7729957,26.6576619 52.9766002,30.9997947 L43.9883615,31.000058 C43.9197085,28.0566482 43.5494528,25.2600404 42.934229,22.7175639 C45.3738408,22.0979693 47.5388994,21.2690807 49.295348,20.2645284 L48.8011178,19.3994407 Z M15.2116565,19.3824528 L14.7057053,20.2701728 C16.4631,21.2724508 18.6275436,22.0996685 21.065652,22.7171925 C20.4504504,25.2607716 20.0802825,28.057033 20.0116385,31.000058 L11.0233998,30.9997947 C11.227358,26.6501189 12.7546111,22.646504 15.2116565,19.3824528 Z M23.0176715,23.1573327 C25.4965744,23.6470854 28.1974157,23.9347264 31.0003913,23.9901354 L31,31 L22.0122503,31.0001793 C22.0802299,28.2317546 22.4285324,25.6205753 22.99205,23.2631205 L23.0176715,23.1573327 Z M40.98213,23.1559009 C41.5608249,25.5413088 41.9187378,28.1897154 41.9877497,31.0001793 L33,31 L33.0006061,23.9901161 C35.6688731,23.9373178 38.2441334,23.6740662 40.623099,23.2262726 L40.98213,23.1559009 Z M31.0003538,11.6115124 L31.0004419,21.9897121 C28.3787272,21.9356608 25.8582362,21.66995 23.5515531,21.2239702 L23.640486,20.9454412 C25.3016341,15.8072208 28.0417143,12.2709338 31.0003538,11.6115124 Z M33.0006448,11.6117351 C36.0117981,12.2835307 38.7964568,15.9351734 40.4484766,21.223609 C38.1427988,21.6697357 35.6228393,21.9355414 33.0011455,21.9896795 L33.0006448,11.6117351 Z M26.906,11.621 C24.674847,13.5851846 22.8173772,16.8021088 21.5923438,20.7889597 C19.4873771,20.2576378 17.6139267,19.56567 16.0743977,18.7416086 L15.8264745,18.6044596 C18.6380649,15.2135941 22.49565,12.7213476 26.9044928,11.6224571 L26.906,11.621 Z M37.0915281,11.6214658 C41.5007289,12.7195244 45.3588143,15.2111046 48.1710383,18.6014605 C46.5889353,19.487546 44.6269359,20.2274972 42.4061386,20.787439 C41.2006116,16.862548 39.3816297,13.6838648 37.1946912,11.7116992 L37.0915281,11.6214658 Z" id="Combined-Shape"></path>
                    </g>
                    <text id="Internet" font-family="Roboto-Regular, Roboto" font-size="12" font-weight="normal" fill="#4B5057">
                        <tspan x="4.13867188" y="85">INTERNET</tspan>
                    </text>
                    <line x1="74" y1="33" x2="134" y2="33" id="Line" stroke="#63696F" stroke-linecap="square"></line>
                    <line x1="216" y1="32.5" x2="276" y2="32.5" id="Line" stroke="#63696F" stroke-linecap="square"></line>
                    <g id="Group-5" transform="translate(81.5, 95)">
                        <text id="Ethernet-Port" font-family="Roboto-Medium, Roboto" font-size="14" font-weight="400" fill="#00A3BC">
                            <tspan x="0.28515625" y="13">Ethernet Port</tspan>
                        </text>
                        <g id="ico_port" transform="translate(88, 3)" fill="#00A3BC">
                            <rect x="0" y="0" width="12" height="12"></rect>
                        </g>
                        <g id="ico_port" transform="translate(230, 3)" fill="#00A3BC">
                            <rect x="0" y="0" width="12" height="12"></rect>
                        </g>
                        <polyline id="Path-5" stroke="#00A3BC" stroke-width="2" points="95 15 95 35 237 35 237 15"></polyline>
                        <text id="Ethernet-Cable" font-family="Roboto-Medium, Roboto" font-size="14" font-weight="400" fill="#00A3BC">
                            <tspan x="120.048828" y="27">Ethernet Cable</tspan>
                        </text>
                        <text id="WAN-Port" font-family="Roboto-Medium, Roboto" font-size="14" font-weight="400" fill="#00A3BC">
                            <tspan x="246.5" y="13">WAN Port</tspan>
                        </text>
                    </g>
                </g>
            </g>
        </g>
    </g>
</svg>