<?xml version="1.0" encoding="UTF-8"?>
<svg width="210px" height="67px" viewBox="0 0 210 67" version="1.1" xmlns="http://www.w3.org/2000/svg" xmlns:xlink="http://www.w3.org/1999/xlink">
    <title>pict_router_mode</title>
    <g id="Setup-Wizard" stroke="none" stroke-width="1" fill="none" fill-rule="evenodd">
        <g id="00-setup-wizard_020-router-mode_010-step-1" transform="translate(-458, -311)">
            <g id="content" transform="translate(270, 120)">
                <g id="router-mode" transform="translate(160, 151)">
                    <g id="pict_router_mode" transform="translate(28, 40)">
                        <g id="ico_router_wreq_130be" transform="translate(146, 0)" fill="#63696F" fill-rule="nonzero">
                            <path d="M16.9279457,0.393230043 C17.0525139,0.393230043 17.1751204,0.42425725 17.2846939,0.48350988 L17.8095986,0.767230043 L30.5875986,0.767230043 L31.1140048,0.483401336 C31.1961474,0.439014426 31.2856079,0.410486529 31.3777238,0.398996762 L31.4705522,0.393230043 L34.1425435,0.393230043 C34.7107159,0.393230043 35.0725568,1.00041865 34.8021792,1.50013439 C34.2947688,2.43793749 33.8907812,4.51218812 33.8172138,5.85595963 C33.7167881,6.63770463 33.7416501,11.4640299 33.8840144,17.2700183 C33.9012637,17.9656063 33.9209001,18.6851514 33.9427783,19.4265059 C33.9943958,21.1755973 34.0576937,23.0205883 34.1300909,24.9235078 C34.2029519,26.838619 34.2810214,28.709337 34.3590889,30.4591509 C34.3754818,30.826582 34.3911714,31.1728136 34.4060172,31.4957809 L34.4345419,32.1100846 C34.448193,32.4009677 34.4579375,32.6042952 34.4594965,32.6648717 C34.4662979,32.7265426 34.4792264,32.8429636 34.4974595,33.0058734 C34.5278676,33.2775661 34.5620602,33.5803527 34.5992673,33.9064464 C34.7055572,34.8380039 34.8146805,35.7694997 34.9204553,36.6384828 C34.9492135,36.8747435 34.9773863,37.1035555 35.0048962,37.3241399 C35.1163478,38.2177979 35.21589,38.9642103 35.2953796,39.5047712 L35.3612862,39.9341137 C35.4013213,40.1811789 35.4332581,40.3478081 35.4553376,40.4213423 L35.482603,40.5557532 C35.5665875,41.3262191 35.4758999,41.7232369 35.1940344,42.1941647 C35.1704961,42.2334924 35.1569968,42.2565018 35.1464424,42.2757947 L35.1319328,42.3035219 C35.0750444,42.4149609 34.6336845,43.3741323 33.973936,44.8177686 C33.9704885,44.8253123 33.9704885,44.8253123 33.9670411,44.832856 C33.7099187,45.3954985 33.4348339,45.9983826 33.1600308,46.6012741 C33.0043276,46.942924 33.0043276,46.942924 32.8944791,47.1840773 C32.8738886,47.2292901 32.8584457,47.2631997 32.8465779,47.2892591 L32.820128,47.3473398 C32.8075486,47.3749639 32.8029804,47.3849992 32.7938439,47.4050698 C32.6720549,47.6726101 32.4051983,47.8443375 32.1112419,47.8443375 L28.7754541,47.8443375 C28.5125574,47.8443375 28.2688534,47.7066858 28.1331303,47.4815327 C28.0991624,47.4251828 28.0115133,47.3104617 27.8878457,47.1966344 C27.7092584,47.0322572 27.5306121,46.9452713 27.3638361,46.9452713 L21.0325612,46.9452713 C20.8669864,46.9452713 20.6889426,47.032112 20.5106854,47.196362 C20.3870823,47.3102525 20.299401,47.4250742 20.2653676,47.4815327 C20.1296445,47.7066858 19.8859405,47.8443375 19.6230438,47.8443375 L16.287256,47.8443375 C15.9932996,47.8443375 15.726443,47.6726101 15.604654,47.4050698 C15.5955175,47.3849992 15.5909493,47.3749639 15.5783699,47.3473398 L15.55192,47.2892591 C15.5400523,47.2631997 15.5246093,47.2292901 15.5040188,47.1840773 C15.3941703,46.942924 15.3941703,46.942924 15.2384671,46.6012741 C14.9636641,45.9983826 14.6885792,45.3954985 14.4314568,44.832856 C14.4280094,44.8253123 14.4280094,44.8253123 14.4245619,44.8177686 C13.7648134,43.3741323 13.3234535,42.4149609 13.2656074,42.3016393 C13.2543303,42.279394 13.2413022,42.2566975 13.2107689,42.2059408 L13.204575,42.195647 C12.9225125,41.7268455 12.8314115,41.3283005 12.9136059,40.5574999 L12.9410597,40.4213423 C13.010978,40.1884839 13.1797431,39.02209 13.3915011,37.3241399 C13.419011,37.1035555 13.4471838,36.8747435 13.475942,36.6384828 C13.5817167,35.7694997 13.6908401,34.8380039 13.79713,33.9064464 C13.834337,33.5803527 13.8685296,33.2775661 13.8989378,33.0058734 C13.9171708,32.8429636 13.9300994,32.7265426 13.9332827,32.7103174 C13.938445,32.6051521 13.9481446,32.4037751 13.9617331,32.1156047 C13.9843924,31.6350702 14.0096444,31.0865721 14.036841,30.47953 C14.114552,28.744977 14.192265,26.8892203 14.2647935,24.9876546 C14.3382239,23.0624399 14.4022337,21.1956362 14.4541177,19.4266418 C14.4758606,18.6853133 14.4953295,17.9657949 14.5123844,17.2699602 C14.5930964,14.0253353 14.6362833,11.062898 14.6399249,8.94440394 L14.6398692,8.3535776 C14.6371384,7.03268485 14.6161707,6.12402229 14.5763381,5.80222044 C14.503392,4.4961383 14.102803,2.43622583 13.5963187,1.50013439 C13.3259411,1.00041865 13.6877821,0.393230043 14.2559545,0.393230043 L16.9279457,0.393230043 Z M14.7819444,42.0045876 L14.8085546,42.0581913 C15.0084731,42.4893079 15.3416194,43.2156833 15.7888449,44.1942849 C15.792296,44.2018364 15.792296,44.2018364 15.795747,44.209388 C16.0530964,44.7725273 16.3283759,45.375838 16.6033667,45.9791412 C16.6379887,46.0551102 16.6649169,46.1141972 16.6870674,46.162802 L16.7421019,46.2835699 C16.7498574,46.30059 16.7571476,46.3165896 16.7643368,46.3323686 L16.7690354,46.34423 L18.1986367,46.3461138 C18.443716,46.1782594 18.6082628,45.9142738 18.647728,45.547242 L18.6562227,45.4198832 C18.6603716,45.1052884 18.6603716,45.1052884 18.6698047,44.3906032 L18.6716202,44.2530607 C18.6801138,43.609611 18.680317,43.59424 18.6835687,43.3483042 C18.6853608,43.246156 18.689119,43.1112821 18.6954414,42.9649907 L18.8671481,42.9755431 C18.2983504,42.947377 17.4644337,42.7735469 16.4147629,42.4871383 C16.1573343,42.4168975 15.8903778,42.3407196 15.6159318,42.2594945 C15.3374073,42.1770624 15.0581277,42.0915434 14.7819444,42.0045876 Z M33.6155944,42.0027722 L33.3027723,42.1020684 C33.1294192,42.1554775 32.9554257,42.2080863 32.7817259,42.2594945 C32.5072798,42.3407196 32.2403233,42.4168975 31.9828947,42.4871383 C31.0340862,42.7460261 30.2615605,42.9129311 29.7017757,42.9634182 C29.7085374,43.1113531 29.7123078,43.2468779 29.7141265,43.350746 C29.7175574,43.6106358 29.7175574,43.6106358 29.7278501,44.3903794 L29.7296178,44.5243137 C29.7373037,45.1066502 29.7375515,45.1257154 29.7412675,45.4116937 C29.7534501,45.851078 29.9264321,46.1584801 30.1989901,46.3457786 L31.6287854,46.34423 L31.6341611,46.3323686 L31.656396,46.2835699 L31.7114305,46.162802 C31.7225057,46.1384996 31.7347754,46.1115767 31.748604,46.0812332 L31.7951312,45.9791412 C32.070122,45.375838 32.3454015,44.7725273 32.6027509,44.209388 C32.6062019,44.2018364 32.6062019,44.2018364 32.609653,44.1942849 C33.077272,43.171059 33.4201706,42.4235868 33.6155944,42.0027722 Z M23.3256806,42.8363179 C22.6865823,42.8586031 22.0051353,42.917135 21.273262,43.0041621 C20.9257837,43.0454807 19.9382248,43.1813219 19.8101411,43.1890242 C19.8107332,43.256676 19.8093022,43.3161711 19.8084331,43.3655962 C19.8077898,43.4143254 19.8072672,43.4539179 19.8067747,43.4912267 L19.805803,43.5648299 C19.8039971,43.701632 19.8017858,43.8691548 19.7947096,44.4052275 L19.7929418,44.5391671 C19.788549,44.8719709 19.7865787,45.0211583 19.7849451,45.14411 L19.7837505,45.2338637 C19.7829528,45.2936989 19.7821088,45.3568114 19.780958,45.442874 C19.7764975,45.6037476 19.7592621,45.7564888 19.730445,45.9009384 C20.1079285,45.6156304 20.5429035,45.4452713 21.0325612,45.4452713 L27.3638361,45.4452713 C27.8544506,45.4452713 28.2902468,45.6158315 28.6704015,45.8990857 C28.6387923,45.7549063 28.6210819,45.5990549 28.6165323,45.4346845 C28.6123841,45.1201394 28.6123841,45.1201394 28.602951,44.4054513 L28.6011354,44.2679102 C28.5926421,43.6244797 28.5924433,43.6093949 28.5892621,43.368038 C28.5883769,43.317583 28.5869318,43.2573342 28.5848548,43.1910185 L28.5950781,43.1893516 C28.5060096,43.1877322 27.4800064,43.0464477 27.1243956,43.0041621 C26.3925223,42.917135 25.7110754,42.8586031 25.0719771,42.8363179 C24.7928607,42.8265851 24.5277025,42.824139 24.2779342,42.8294889 L24.197229,42.8315049 C24.1705094,42.832269 24.1439726,42.8331254 24.1176204,42.8340748 L24.1175986,42.83023 L23.976653,42.8272893 C23.7693579,42.825322 23.5521123,42.8284222 23.3256806,42.8363179 Z M27.9506118,3.45297663 L20.4455986,3.45323004 L20.4581739,3.49410876 C20.4719281,3.54860346 20.4832524,3.60808514 20.4934832,3.67481348 L20.5081761,3.78062342 C20.5256342,3.91802102 20.5368273,4.05153426 20.5426808,4.14562448 L20.5447442,4.17982071 C20.5451183,4.18600939 20.545548,4.19311052 20.5460939,4.20212579 L20.5512487,4.2872008 C20.5525019,4.30787946 20.5539927,4.33247566 20.5557816,4.3619911 C20.5598823,4.42946367 20.5628114,4.47765837 20.5653808,4.51988673 L20.5728222,4.64198435 C20.5768154,4.7073952 20.5818265,4.78933277 20.5905958,4.93272352 C20.6267719,5.52312219 20.6634178,6.11350849 20.6982743,6.6644532 C20.7045145,6.76300517 20.7045145,6.76300517 20.7107646,6.86137151 C20.7893327,8.0967966 20.856548,9.06532409 20.8739016,9.17100487 C20.9309394,9.90372197 21.0095712,11.5926346 21.0727688,13.2725998 L21.0943726,13.8635855 C21.1401442,15.1537182 21.1740264,16.3702617 21.1787774,17.0638066 L21.1789798,17.3277096 C21.1786995,17.36592 21.178258,17.4011344 21.177649,17.4331892 C21.2874635,20.2120534 20.9011522,31.2227031 20.6445387,34.1324247 L20.6276301,34.3142255 C20.5974252,34.65687 20.5569782,35.1147078 20.5087883,35.6574742 C20.4274192,36.5739425 20.3469051,37.4740166 20.2707024,38.3164261 C20.2623334,38.4089169 20.2623334,38.4089169 20.2539592,38.5013515 C20.0875221,40.3379221 19.9791513,41.4964965 19.9178505,42.0470012 C20.0369102,42.030673 20.2243139,42.0053825 20.4251481,41.9787233 L20.6812831,41.9449899 C20.8514567,41.9227879 21.015144,41.9019293 21.1404241,41.8870322 C21.9009508,41.796598 22.6120668,41.7355177 23.2864758,41.7120012 C23.6069404,41.7008266 23.912221,41.6985856 24.2011916,41.7061069 L24.0771172,41.7098041 C24.4010067,41.6981356 24.7462491,41.699276 25.1111819,41.7120012 C25.7855909,41.7355177 26.4967069,41.796598 27.2572335,41.8870322 L27.3578962,41.8992506 L27.5904593,41.9286624 C27.9105371,41.9698846 28.2850961,42.0205141 28.4808439,42.0468002 C28.4186453,41.4979815 28.3102422,40.3390994 28.1436984,38.5013515 C28.1353243,38.4089169 28.1353243,38.4089169 28.1269553,38.3164261 C28.0507526,37.4740166 27.9702385,36.5739425 27.8888693,35.6574742 C27.8406795,35.1147078 27.8002325,34.65687 27.7705449,34.3197535 C27.5139198,31.7161304 27.1077538,20.273806 27.2196632,17.4656431 C27.208513,16.8533981 27.2551785,15.1568723 27.3205826,13.4159271 L27.347651,12.7196448 C27.4080631,11.2165814 27.4786365,9.78429415 27.5339334,9.09969434 C27.5411096,9.06532409 27.608325,8.0967966 27.6868931,6.86137151 C27.6884556,6.83677992 27.6896275,6.81833623 27.6906039,6.80296359 L27.695678,6.72296553 L27.6993833,6.6644532 C27.7342399,6.11350849 27.7708858,5.52312219 27.8070619,4.93272352 C27.8275236,4.59814511 27.8275236,4.59814511 27.841876,4.3619911 L27.8464093,4.28719577 L27.8515721,4.20198982 C27.8532181,4.17480803 27.8538265,4.16471759 27.8550435,4.14453672 C27.8608303,4.05153426 27.8720235,3.91802102 27.8894816,3.78062342 C27.9061265,3.64962509 27.9240854,3.54449788 27.9506118,3.45297663 Z M16.7390354,1.89323004 L15.3695354,1.89323004 L15.3970722,1.97544143 C15.7396515,3.06054709 15.973574,4.39058509 16.0527494,5.41677855 L16.0692927,5.66667924 C16.1832332,6.57136736 16.1582267,11.42575 16.0119272,17.306988 C15.9948184,18.005029 15.9752846,18.7269467 15.953473,19.4706174 C15.9014509,21.2443179 15.8372928,23.1154494 15.7637036,25.0448252 C15.6910399,26.9499371 15.6131899,28.8089654 15.5353379,30.5466653 C15.5080873,31.1549117 15.4827814,31.7045793 15.4600682,32.1862577 C15.4464332,32.475415 15.4366873,32.6777531 15.4278607,32.829306 C15.4209381,32.8920731 15.4079563,33.0089734 15.3896304,33.1727134 C15.3591068,33.4454371 15.3247943,33.7492859 15.2874604,34.0764919 C15.1807762,35.0115047 15.0712336,35.9465794 14.9649517,36.8197286 C14.9360206,37.0574101 14.9076684,37.2876789 14.8799702,37.5097728 C14.6742845,39.1590333 14.5218966,40.2373002 14.4152007,40.7066005 C14.9128194,40.8683447 15.4259619,41.0300344 15.9351978,41.1807479 C16.2022546,41.2597861 16.4615592,41.3337805 16.7108997,41.4018144 C17.6118153,41.6476343 18.3400911,41.8038524 18.8116983,41.8443037 C18.8670388,41.2898262 18.9888173,39.9968938 19.1335506,38.3998158 C19.1419162,38.3074753 19.1419162,38.3074753 19.1502771,38.2150747 C19.2264171,37.3733579 19.3068781,36.4738771 19.3881964,35.5579818 C19.4363595,35.0155167 19.4767781,34.558 19.507538,34.209403 C19.6224717,33.0433277 19.7692061,30.0355629 19.8842424,26.8424668 L19.9161925,25.9265415 L19.9460884,25.009115 C20.0467454,21.8055112 20.1036092,18.7320728 20.053181,17.445158 C20.0747654,16.2599754 19.8671176,10.7333471 19.7624721,9.32962612 C19.7602526,9.31899604 19.757841,9.30374055 19.755223,9.28373144 L19.7467356,9.20931505 C19.7178084,8.92769181 19.668972,8.20548408 19.5880327,6.93277277 C19.5817706,6.83421583 19.5817706,6.83421583 19.5755191,6.7354864 L19.5221014,5.88324893 C19.5040379,5.5926168 19.4858109,5.2970707 19.4677018,5.0015277 C19.4472186,4.66659813 19.4472186,4.66659813 19.4328487,4.43015827 C19.4220994,4.2528055 19.4220994,4.2528055 19.4197856,4.2144016 C19.4153697,4.14343242 19.4059429,4.0309882 19.3921491,3.92242833 C19.3879611,3.88946825 19.3833419,3.85897531 19.3796232,3.83499183 L19.3725,3.78661207 L19.3444429,3.69747962 C19.2984504,3.50921687 19.2070217,3.32722656 19.0723793,3.15472024 L16.7390354,1.89323004 Z M33.0282854,1.89323004 L31.6587854,1.89323004 L29.3260647,3.1537135 C29.1909919,3.32651845 29.0992967,3.5088506 29.0532147,3.69747962 L29.0241964,3.78464783 C29.0291436,3.77304753 29.0159786,3.84002814 29.0055086,3.92242833 C28.9917147,4.0309882 28.9822879,4.14343242 28.9779387,4.21331385 L28.9758654,4.24767289 C28.9743638,4.27251137 28.9719751,4.31192309 28.9648089,4.43015827 C28.9504391,4.66659813 28.9504391,4.66659813 28.9299559,5.0015277 C28.8937377,5.59261371 28.8570476,6.18371208 28.8221385,6.7354864 C28.8205757,6.76016876 28.8194035,6.77868052 28.8184266,6.7941043 L28.8133429,6.87425189 L28.809625,6.93277277 C28.7425866,7.98690208 28.697571,8.66338259 28.6709098,9.00182756 L28.6598945,9.13417465 C28.653402,9.20659669 28.6485938,9.24759235 28.6453629,9.25831558 C28.5913286,9.95244805 28.516738,11.5438199 28.4551175,13.1611467 L28.4326833,13.7671591 C28.3850389,15.0932074 28.349033,16.3629952 28.3433911,17.0898939 L28.3428868,17.3667651 C28.3431308,17.4068977 28.3435433,17.4439057 28.3441312,17.4776119 C28.3344782,17.7218832 28.3287786,18.0322776 28.3265835,18.3970493 L28.3263201,19.1098289 C28.3337145,20.8130132 28.3928697,23.2734759 28.475049,25.73949 L28.5013267,26.5060351 C28.6181378,29.8212408 28.7713788,33.0048493 28.890637,34.214931 C28.9208795,34.558 28.9612982,35.0155167 29.0094613,35.5579818 C29.0907796,36.4738771 29.1712406,37.3733579 29.2473806,38.2150747 C29.2557414,38.3074753 29.2557414,38.3074753 29.264107,38.3998158 C29.4013275,39.913992 29.5179144,41.1547786 29.577535,41.7514592 L29.5873985,41.84418 C30.0197433,41.8069218 30.6672513,41.6726073 31.4653959,41.4613289 L31.686758,41.4018144 C31.9360985,41.3337805 32.195403,41.2597861 32.4624599,41.1807479 C32.9716958,41.0300344 33.4848383,40.8683447 33.975864,40.706654 L33.9805986,40.70423 L33.9697908,40.6549273 C33.8691059,40.1859071 33.7298554,39.2070037 33.5461929,37.7474059 L33.5164271,37.5097728 C33.4887289,37.2876789 33.4603767,37.0574101 33.4314455,36.8197286 C33.3251637,35.9465794 33.2156211,35.0115047 33.1089369,34.0764919 C33.071603,33.7492859 33.0372904,33.4454371 33.0067669,33.1727134 C32.9884409,33.0089734 32.9754592,32.8920731 32.9649091,32.7836683 C32.9596774,32.6765281 32.9498877,32.4722557 32.936191,32.1804023 C32.9133747,31.6942257 32.8879538,31.1395771 32.8605795,30.5260065 C32.7823736,28.7730895 32.7041695,26.8991453 32.6311753,24.9805346 C32.5586247,23.073583 32.495183,21.2243991 32.443431,19.4707533 C32.4214853,18.7271086 32.4017848,18.0052175 32.3844702,17.3069958 C32.305065,14.0686421 32.2616035,11.1663146 32.256392,9.06029055 L32.2563529,8.26144147 C32.2598736,6.94159582 32.2822875,6.0420103 32.3243856,5.72056002 C32.3817086,4.64288772 32.6273964,3.16382079 33.0000577,1.98060668 L33.0282854,1.89323004 Z M24.1988288,14.1895634 C24.3248662,14.1895634 24.4298973,14.2924939 24.4298973,14.4185312 L24.4298973,33.7736629 C24.4298973,33.8804445 24.356959,33.9697209 24.259708,33.9965136 L24.1988288,34.0047313 C24.0727915,34.0047313 23.9677604,33.9018008 23.9677604,33.7736629 L23.9677604,14.4185312 C23.9677604,14.2924939 24.0727915,14.1895634 24.1988288,14.1895634 Z M29.0076558,1.5175875 L19.5171558,1.5175875 L19.6179815,1.55690719 C19.6830965,1.58220698 19.7399068,1.60422829 19.7811448,1.62009431 L19.8304142,1.63891726 C19.9160939,1.67122033 19.9909139,1.69796828 20.0515916,1.71878483 L20.153118,1.7523979 C20.1934805,1.76513867 20.2175124,1.7716972 20.2219312,1.7716972 L28.3030242,1.7716972 C28.3148076,1.7716972 28.4660619,1.72505879 28.6945411,1.63891726 C28.7303144,1.62542998 28.8093013,1.59485688 28.9069739,1.55690719 L29.0076558,1.5175875 Z" id="Combined-Shape"></path>
                        </g>
                        <g id="ico_wireless_signal_right" transform="translate(186, 12)" fill="#63696F" fill-rule="nonzero">
                            <g id="Group-19" transform="translate(12.031, 11.969) scale(-1, 1) rotate(-45) translate(-12.031, -11.969)translate(4.1625, 4.1005)">
                                <path d="M15.2370177,9.50775337 C15.5131601,9.50775337 15.7370177,9.73161099 15.7370177,10.0077534 C15.7370177,10.2838957 15.5131601,10.5077534 15.2370177,10.5077534 C12.6251171,10.5077534 10.5077534,12.6251171 10.5077534,15.2370177 C10.5077534,15.5131601 10.2838957,15.7370177 10.0077534,15.7370177 C9.73161099,15.7370177 9.50775337,15.5131601 9.50775337,15.2370177 C9.50775337,12.0728324 12.0728324,9.50775337 15.2370177,9.50775337 Z M15.2370177,4.75387668 C15.5131601,4.75387668 15.7370177,4.97773431 15.7370177,5.25387668 C15.7370177,5.53001906 15.5131601,5.75387668 15.2370177,5.75387668 C9.99962354,5.75387668 5.75387668,9.99962354 5.75387668,15.2370177 C5.75387668,15.5131601 5.53001906,15.7370177 5.25387668,15.7370177 C4.97773431,15.7370177 4.75387668,15.5131601 4.75387668,15.2370177 C4.75387668,9.44733879 9.44733879,4.75387668 15.2370177,4.75387668 Z M15.2370177,0 C15.5131601,0 15.7370177,0.223857625 15.7370177,0.5 C15.7370177,0.776142375 15.5131601,1 15.2370177,1 C7.37412995,1 1,7.37412995 1,15.2370177 C1,15.5131601 0.776142375,15.7370177 0.5,15.7370177 C0.223857625,15.7370177 -7.10542736e-15,15.5131601 -7.10542736e-15,15.2370177 C-7.10542736e-15,6.8218452 6.8218452,0 15.2370177,0 Z" id="Combined-Shape"></path>
                            </g>
                        </g>
                        <g id="ico_modem" transform="translate(78, 0)" fill="#63696F" fill-rule="nonzero">
                            <path d="M44.25,16.875 C45.4926407,16.875 46.5,17.8823593 46.5,19.125 L46.5,29.625 C46.5,30.7546415 45.6675185,31.6898466 44.5825801,31.8505906 C44.4264895,32.5094409 43.8330329,33 43.125,33 L34.125,33 C33.4262834,33 32.8391476,32.5222654 32.6724162,31.8756196 L16.0775838,31.8756196 C15.9108524,32.5222654 15.3237166,33 14.625,33 L5.625,33 C4.92628335,33 4.3391476,32.5222654 4.17241617,31.8756196 L3.75,31.875 C2.50735931,31.875 1.5,30.8676407 1.5,29.625 L1.5,19.125 C1.5,17.8823593 2.50735931,16.875 3.75,16.875 L44.25,16.875 Z M15.2742801,31.8756617 L4.97571989,31.8756617 C5.10549235,32.0994723 5.34766736,32.25 5.625,32.25 L14.625,32.25 C14.9023326,32.25 15.1445077,32.0994723 15.2742801,31.8756617 Z M43.7742801,31.8756617 L33.4757199,31.8756617 C33.6054923,32.0994723 33.8476674,32.25 34.125,32.25 L43.125,32.25 C43.4023326,32.25 43.6445077,32.0994723 43.7742801,31.8756617 Z M45,29.125 L3,29.125 L3,29.625 C3,30.0392136 3.33578644,30.375 3.75,30.375 L44.25,30.375 C44.6642136,30.375 45,30.0392136 45,29.625 L45,29.125 Z M5.25,18.375 L3.75,18.375 C3.33578644,18.375 3,18.7107864 3,19.125 L3,28.125 L45,28.125 L45,19.125 C45,18.7107864 44.6642136,18.375 44.25,18.375 L12.75,18.375 L12.75,22.125 L11.25,22.125 L11.25,18.375 L9.75,18.375 L9.75,22.125 L8.25,22.125 L8.25,18.375 L6.75,18.375 L6.75,22.125 L5.25,22.125 L5.25,18.375 Z M40.5,22.125 C41.3284271,22.125 42,22.7965729 42,23.625 C42,24.4534271 41.3284271,25.125 40.5,25.125 C39.6715729,25.125 39,24.4534271 39,23.625 C39,22.7965729 39.6715729,22.125 40.5,22.125 Z M34.5,22.125 C35.3284271,22.125 36,22.7965729 36,23.625 C36,24.4534271 35.3284271,25.125 34.5,25.125 C33.6715729,25.125 33,24.4534271 33,23.625 C33,22.7965729 33.6715729,22.125 34.5,22.125 Z M28.5,22.125 C29.3284271,22.125 30,22.7965729 30,23.625 C30,24.4534271 29.3284271,25.125 28.5,25.125 C27.6715729,25.125 27,24.4534271 27,23.625 C27,22.7965729 27.6715729,22.125 28.5,22.125 Z" id="Combined-Shape"></path>
                        </g>
                        <g id="ico_network_online" fill="#63696F" fill-rule="nonzero">
                            <path d="M24,1.5 C36.4264069,1.5 46.5,11.5735931 46.5,24 C46.5,36.4264069 36.4264069,46.5 24,46.5 C11.5735931,46.5 1.5,36.4264069 1.5,24 C1.5,11.5735931 11.5735931,1.5 24,1.5 Z M24,3 C12.4020203,3 3,12.4020203 3,24 C3,35.5979797 12.4020203,45 24,45 C35.5979797,45 45,35.5979797 45,24 C45,12.4020203 35.5979797,3 24,3 Z M23.2502928,31.5077165 L23.250857,39.2914975 C20.9920041,38.7884416 18.9029506,36.0494678 17.6643638,32.0832139 L17.7679714,32.0623605 C19.4691928,31.7396971 21.3230761,31.547452 23.2502928,31.5077165 Z M24.7508428,31.5077401 C26.7165998,31.5483316 28.6064608,31.7475823 30.3356362,32.0832139 C29.0972326,36.048881 27.0086141,38.7876311 24.7501455,39.2912741 L24.7508428,31.5077401 Z M16.1954947,32.409742 C17.113483,35.3983277 18.5057169,37.8100186 20.1795066,39.2835216 C16.8733886,38.4596677 13.9805061,36.5912061 11.8717279,34.0489127 C13.0583548,33.3845082 14.5297764,32.8295641 16.1954947,32.409742 Z M31.8052304,32.408151 C33.3602273,32.8006182 34.7467834,33.309972 35.8915113,33.9157508 L36.129947,34.0468931 C34.0212388,36.5899598 31.1280709,38.4590722 27.8214787,39.283195 C29.4947614,37.8093707 30.8870712,35.3973099 31.8052304,32.408151 Z M39.7324379,24.7504138 C39.5795535,28.0097382 38.4359808,31.0099732 36.5960555,33.4567833 L36.9707211,32.7973704 C35.6528368,32.0457541 34.0297407,31.4254009 32.2006547,30.962545 C32.6620823,29.0548976 32.9397393,26.9577338 32.9912587,24.750492 L39.7324379,24.7504138 Z M15.0087413,24.750492 C15.0602607,26.9577338 15.3379177,29.0548976 15.7991869,30.961959 C13.9699386,31.4265996 12.3463175,32.0481779 11.0285895,32.8015463 L11.3956718,33.445772 C9.56059162,31.0009744 8.42021721,28.0048505 8.26756206,24.7504138 L15.0087413,24.750492 Z M23.25,24.75 L23.2500629,30.0074026 C21.1473269,30.0489817 19.1216535,30.2648268 17.2635999,30.6338878 C16.8295284,28.8448914 16.5610358,26.8586345 16.5092113,24.7508231 L23.25,24.75 Z M31.4907887,24.7508231 C31.4389739,26.8582399 31.1705721,28.8441478 30.7370955,30.6320695 C28.8780676,30.2647613 26.8526033,30.0490146 24.7505371,30.0074149 L24.75,24.75 L31.4907887,24.7508231 Z M36.6043282,14.554228 C38.4394084,16.9990256 39.5797828,19.9951495 39.7324379,23.2495862 L32.9912819,23.2505059 C32.939823,21.0428982 32.6621518,18.9453899 32.2006949,17.038167 C34.0303943,16.5734717 35.6541801,15.9518073 36.971511,15.1983963 L36.6043282,14.554228 Z M11.4039445,14.5432167 L11.0292789,15.2026296 C12.3471632,15.9542459 13.9702593,16.5745991 15.7993453,17.037455 C15.3378482,18.9453899 15.060177,21.0428982 15.0087181,23.2505059 L8.26756206,23.2495862 C8.42044647,19.9902618 9.56401917,16.9900268 11.4039445,14.5432167 Z M17.2629045,17.3679305 C19.1222274,17.735297 21.1480395,17.9510539 23.2504636,17.9926049 L23.25,23.25 L16.5091868,23.250174 C16.5599435,21.1830291 16.8190887,19.2327777 17.2384361,17.4708244 L17.2629045,17.3679305 Z M30.7366439,17.3671169 C31.1706405,19.1561344 31.4390586,21.1423865 31.4908132,23.250174 L24.75,23.25 L24.751031,17.9925756 C26.7882375,17.9522333 28.7531476,17.7483198 30.5640366,17.4013371 L30.7366439,17.3671169 Z M23.250857,8.7085025 L23.250159,16.4922805 C21.2840423,16.4517361 19.3938331,16.2524745 17.6639483,15.9180325 L17.6749436,15.8830028 C18.914825,11.9349835 20.9984231,9.21012888 23.250857,8.7085025 Z M24.7501455,8.70872592 C27.0086141,9.2123689 29.0972326,11.951119 30.3363177,15.9177144 C28.6070516,16.2523084 26.7170739,16.4516606 24.750796,16.4922609 L24.7501455,8.70872592 Z M20.1790775,8.7168716 C18.5052386,10.1906293 17.1129288,12.6026901 16.1947696,15.591849 C14.6397727,15.1993818 13.2532166,14.690028 12.1084887,14.0842492 L11.870053,13.9531069 C13.9425694,11.4536869 16.772849,9.60528569 20.008635,8.76016001 L20.1790775,8.7168716 Z M27.8204771,8.71655546 C31.1266114,9.5403323 34.0194939,11.4087939 36.1282721,13.9510873 C34.9419719,14.6155505 33.4704195,15.1705472 31.8045053,15.590258 C30.8923606,12.6206965 29.5119888,10.2207086 27.8524233,8.74473167 L27.8204771,8.71655546 Z" id="Combined-Shape"></path>
                        </g>
                        <text id="Internet" font-family="Roboto-Regular, Roboto" font-size="8" font-weight="normal" fill="#4B5057">
                            <tspan x="5.42578125" y="65">INTERNET</tspan>
                        </text>
                        <text id="Modem" font-family="Roboto-Regular, Roboto" font-size="8" font-weight="normal" fill="#4B5057">
                            <tspan x="87.3691406" y="65">MODEM</tspan>
                        </text>
                        <text id="Main-Router" font-family="Roboto-Regular, Roboto" font-size="8" font-weight="normal" fill="#4B5057">
                            <tspan x="154.039062" y="65">MAIN ROUTER</tspan>
                        </text>
                        <line x1="129" y1="24" x2="153" y2="24" id="Line" stroke="#63696F" stroke-linecap="square"></line>
                        <line x1="51" y1="23.5" x2="75" y2="23.5" id="Line" stroke="#63696F" stroke-linecap="square"></line>
                    </g>
                </g>
            </g>
        </g>
    </g>
</svg>